<svg width="177" height="178" xmlns="http://www.w3.org/2000/svg" xmlns:xlink="http://www.w3.org/1999/xlink" xml:space="preserve" overflow="hidden"><defs><clipPath id="clip0"><rect x="383" y="167" width="177" height="178"/></clipPath></defs><g clip-path="url(#clip0)" transform="translate(-383 -167)"><path d="M58.7397 81.7034C58.7397 86.9266 54.5055 91.1608 49.2824 91.1608 44.0592 91.1608 39.825 86.9266 39.825 81.7034 39.825 76.4803 44.0592 72.2461 49.2824 72.2461 54.5055 72.2461 58.7397 76.4803 58.7397 81.7034Z" fill="#01003F" transform="matrix(1 0 0 1.00565 383 167)"/><path d="M90.2064 50.5838C85.2029 38.1186 72.8534 29.1819 59.5206 27.302 55.3559 26.7235 50.3814 27.0995 48.0098 30.599 46.5348 32.7681 46.5059 35.5446 46.5059 38.1765 46.5348 48.675 46.448 59.2024 46.5059 69.701 49.0221 69.9324 51.4515 68.0235 52.4637 65.7098 53.476 63.3961 53.5049 60.7642 53.5049 58.248 53.5338 50.6127 53.5627 43.0064 53.5917 35.3422 63.4539 34.9083 73.374 39.6225 79.274 47.5181 84.7113 54.7775 86.5912 64.9578 82.8892 73.2583 78.4931 83.0917 67.8211 88.2975 57.8431 92.3755 47.8652 96.4534 37.0485 100.763 31.4088 109.96 27.5623 116.236 26.7525 124.218 28.9505 131.275 31.2353 138.65 36.6147 144.666 43.2377 148.512 44.3946 149.177 45.6382 149.843 47.0265 149.785 49.8319 149.698 52.0588 147.037 52.8686 144.55 53.5338 142.468 53.5917 140.212 53.5917 138.014 53.5627 127.804 53.5917 107.299 53.5917 107.299 51.1044 107.039 48.6461 109.005 47.6049 111.261 46.5926 113.517 46.4191 118.578 46.4191 118.578 46.4191 118.578 46.477 133.473 46.4191 140.906 40.924 137.088 36.2676 131.275 35.8338 124.594 35.3711 117.624 39.5358 111.03 45.002 106.663 50.4681 102.296 57.1201 99.8373 63.6274 97.3211 70.1348 94.8049 76.7578 92.1441 81.9926 87.5167 92.1152 78.6377 95.2098 63.049 90.2064 50.5838Z" fill="#01003F" transform="matrix(1 0 0 1.00565 383 167)"/><path d="M58.9132 149.727C58.7976 149.727 58.7397 149.669 58.7397 149.553L58.7397 138.824C58.7397 138.708 58.7976 138.65 58.9132 138.65L62.8466 138.65C63.3672 138.65 63.8588 138.737 64.2926 138.881 64.7265 139.026 65.1025 139.257 65.3917 139.547 65.7098 139.836 65.9412 140.183 66.0858 140.588 66.2593 140.993 66.3461 141.455 66.3461 141.947 66.3461 142.439 66.2593 142.901 66.0858 143.306 65.9123 143.711 65.6809 144.058 65.3917 144.348 65.0735 144.637 64.7265 144.868 64.2926 145.013 63.8588 145.157 63.3672 145.244 62.8466 145.244L60.3015 145.244C60.2436 145.244 60.2147 145.273 60.2147 145.331L60.2147 149.525C60.2147 149.64 60.1569 149.698 60.0412 149.698L58.9132 149.698ZM62.7598 143.914C63.4539 143.914 63.9745 143.74 64.3505 143.393 64.7265 143.046 64.9289 142.554 64.9289 141.947 64.9289 141.34 64.7265 140.848 64.3505 140.501 63.9745 140.154 63.425 139.98 62.7598 139.98L60.2725 139.98C60.2147 139.98 60.1858 140.009 60.1858 140.067L60.1858 143.769C60.1858 143.827 60.2147 143.856 60.2725 143.856L62.7598 143.856Z" fill="#01003F" transform="matrix(1 0 0 1.00565 383 167)"/><path d="M76.4686 149.727C76.3529 149.727 76.2951 149.669 76.2951 149.553L76.2951 148.859 76.2662 148.859C76.0927 149.149 75.8034 149.409 75.4274 149.582 75.0515 149.785 74.5598 149.872 73.9524 149.872 73.5765 149.872 73.2294 149.814 72.9113 149.727 72.5931 149.64 72.3039 149.496 72.0725 149.293 71.8412 149.091 71.6676 148.859 71.523 148.57 71.3784 148.281 71.3206 147.934 71.3206 147.558 71.3206 146.719 71.5809 146.112 72.1304 145.736 72.6799 145.331 73.4029 145.157 74.3574 145.157L76.1216 145.157C76.1794 145.157 76.2083 145.128 76.2083 145.071L76.2083 144.492C76.2083 143.943 76.0637 143.567 75.8034 143.306 75.5431 143.075 75.0515 142.959 74.3284 142.959 73.8946 142.959 73.5186 143.017 73.2294 143.104 72.9402 143.22 72.6799 143.335 72.4485 143.509 72.3618 143.596 72.275 143.567 72.2172 143.48L71.7833 142.728C71.7255 142.641 71.7544 142.554 71.8123 142.497 72.1015 142.265 72.4775 142.092 72.9113 141.947 73.3451 141.802 73.8657 141.745 74.4441 141.745 75.5431 141.745 76.3529 141.947 76.8157 142.352 77.2784 142.757 77.5098 143.451 77.5098 144.405L77.5098 149.582C77.5098 149.698 77.452 149.756 77.3363 149.756L76.4686 149.756ZM74.3284 148.744C74.9358 148.744 75.4274 148.599 75.7745 148.339 76.1216 148.078 76.2951 147.702 76.2951 147.211L76.2951 146.343C76.2951 146.285 76.2662 146.256 76.2083 146.256L74.6176 146.256C73.9235 146.256 73.4319 146.343 73.1426 146.546 72.8245 146.748 72.6799 147.066 72.6799 147.529 72.6799 147.934 72.8245 148.223 73.1137 148.454 73.4029 148.657 73.8078 148.744 74.3284 148.744Z" fill="#01003F" transform="matrix(1 0 0 1.00565 383 167)"/><path d="M84.4799 149.727C84.3642 149.727 84.3064 149.669 84.3064 149.553L84.3064 142.092C84.3064 141.976 84.3642 141.918 84.4799 141.918L85.5211 141.918C85.6368 141.918 85.6946 141.976 85.6946 142.092L85.6946 142.901 85.7235 142.901C85.8971 142.554 86.1573 142.294 86.5044 142.092 86.8515 141.889 87.2853 141.774 87.8059 141.774 88.124 141.774 88.4132 141.831 88.7025 141.918 88.9917 142.034 89.223 142.178 89.3966 142.352 89.4833 142.439 89.4833 142.497 89.4255 142.583L88.8181 143.393C88.7603 143.48 88.6735 143.48 88.5868 143.422 88.4132 143.306 88.2108 143.22 88.0083 143.133 87.8059 143.075 87.6034 143.046 87.3721 143.046 86.7647 143.046 86.3598 143.249 86.0995 143.682 85.8392 144.087 85.6946 144.666 85.6946 145.331L85.6946 149.611C85.6946 149.727 85.6368 149.785 85.5211 149.785L84.4799 149.785Z" fill="#01003F" transform="matrix(1 0 0 1.00565 383 167)"/><path d="M97.4657 149.814C96.7137 149.814 96.1642 149.64 95.8461 149.293 95.5279 148.946 95.3544 148.368 95.3544 147.616L95.3544 143.162C95.3544 143.104 95.3255 143.075 95.2676 143.075L94.6025 143.075C94.4868 143.075 94.4289 143.017 94.4289 142.901L94.4289 142.121C94.4289 142.005 94.4868 141.947 94.6025 141.947L95.2676 141.947C95.3255 141.947 95.3544 141.918 95.3544 141.86L95.3544 139.662C95.3544 139.547 95.4123 139.489 95.5279 139.489L96.5691 139.489C96.6848 139.489 96.7426 139.547 96.7426 139.662L96.7426 141.86C96.7426 141.918 96.7716 141.947 96.8294 141.947L98.073 141.947C98.1887 141.947 98.2466 142.005 98.2466 142.121L98.2466 142.901C98.2466 143.017 98.1887 143.075 98.073 143.075L96.8294 143.075C96.7716 143.075 96.7426 143.104 96.7426 143.162L96.7426 147.587C96.7426 147.992 96.8294 148.252 96.974 148.368 97.1186 148.512 97.3789 148.57 97.726 148.57L98.073 148.57C98.1887 148.57 98.2466 148.628 98.2466 148.744L98.2466 149.698C98.2466 149.814 98.1887 149.872 98.073 149.872L97.4657 149.872Z" fill="#01003F" transform="matrix(1 0 0 1.00565 383 167)"/><path d="M111.088 149.727C110.972 149.727 110.914 149.669 110.914 149.553L110.914 144.984C110.914 144.348 110.77 143.856 110.48 143.509 110.191 143.162 109.757 142.988 109.179 142.988 108.658 142.988 108.225 143.162 107.877 143.509 107.559 143.856 107.386 144.319 107.386 144.897L107.386 149.525C107.386 149.64 107.328 149.698 107.212 149.698L106.171 149.698C106.055 149.698 105.998 149.64 105.998 149.525L105.998 142.063C105.998 141.947 106.055 141.889 106.171 141.889L107.212 141.889C107.328 141.889 107.386 141.947 107.386 142.063L107.386 142.786 107.415 142.786C107.588 142.468 107.877 142.236 108.253 142.034 108.629 141.831 109.063 141.745 109.613 141.745 110.451 141.745 111.117 142.005 111.608 142.554 112.1 143.075 112.331 143.798 112.331 144.695L112.331 149.582C112.331 149.698 112.274 149.756 112.158 149.756L111.088 149.756Z" fill="#01003F" transform="matrix(1 0 0 1.00565 383 167)"/><path d="M122.28 149.929C121.5 149.929 120.834 149.756 120.285 149.38 119.735 149.004 119.359 148.483 119.157 147.818 119.07 147.558 119.012 147.298 118.954 146.979 118.897 146.661 118.897 146.285 118.897 145.851 118.897 145.389 118.925 145.013 118.954 144.695 118.983 144.376 119.041 144.116 119.128 143.885 119.359 143.191 119.735 142.67 120.256 142.323 120.805 141.976 121.442 141.774 122.194 141.774 122.946 141.774 123.582 141.947 124.131 142.323 124.681 142.699 125.057 143.22 125.259 143.885 125.288 144.029 125.346 144.145 125.375 144.29 125.404 144.434 125.433 144.579 125.462 144.752 125.491 144.926 125.491 145.128 125.52 145.36 125.52 145.591 125.549 145.851 125.549 146.141 125.549 146.256 125.491 146.314 125.375 146.314L120.429 146.314C120.372 146.314 120.343 146.343 120.343 146.401 120.343 146.632 120.343 146.806 120.372 146.95 120.4 147.095 120.429 147.24 120.458 147.355 120.603 147.818 120.863 148.165 121.181 148.368 121.528 148.599 121.933 148.715 122.425 148.715 122.888 148.715 123.293 148.628 123.611 148.483 123.929 148.339 124.218 148.107 124.421 147.876 124.507 147.789 124.594 147.789 124.652 147.847L125.317 148.454C125.404 148.512 125.404 148.599 125.346 148.686 125.028 149.091 124.623 149.409 124.102 149.64 123.553 149.785 122.946 149.929 122.28 149.929ZM123.987 145.157C124.045 145.157 124.074 145.128 124.074 145.071 124.074 144.724 124.045 144.405 123.958 144.203 123.813 143.798 123.611 143.509 123.293 143.306 122.975 143.104 122.599 142.988 122.165 142.988 121.731 142.988 121.355 143.104 121.037 143.306 120.719 143.509 120.516 143.827 120.372 144.203 120.285 144.434 120.256 144.724 120.256 145.071 120.256 145.128 120.285 145.157 120.343 145.157L123.987 145.157Z" fill="#01003F" transform="matrix(1 0 0 1.00565 383 167)"/><path d="M132.808 149.727C132.692 149.727 132.634 149.669 132.634 149.553L132.634 142.092C132.634 141.976 132.692 141.918 132.808 141.918L133.849 141.918C133.965 141.918 134.023 141.976 134.023 142.092L134.023 142.901 134.051 142.901C134.225 142.554 134.485 142.294 134.832 142.092 135.179 141.889 135.613 141.774 136.134 141.774 136.452 141.774 136.741 141.831 137.03 141.918 137.32 142.034 137.551 142.178 137.725 142.352 137.811 142.439 137.811 142.497 137.753 142.583L137.146 143.393C137.088 143.48 137.001 143.48 136.915 143.422 136.741 143.306 136.539 143.22 136.336 143.133 136.134 143.075 135.931 143.046 135.7 143.046 135.093 143.046 134.688 143.249 134.427 143.682 134.167 144.087 134.023 144.666 134.023 145.331L134.023 149.611C134.023 149.727 133.965 149.785 133.849 149.785L132.808 149.785Z" fill="#01003F" transform="matrix(1 0 0 1.00565 383 167)"/><path d="M145.851 149.929C145.475 149.929 145.128 149.9 144.781 149.814 144.463 149.756 144.174 149.64 143.885 149.525 143.625 149.409 143.393 149.293 143.162 149.149 142.959 149.004 142.757 148.888 142.612 148.744 142.525 148.657 142.525 148.599 142.612 148.512L143.277 147.789C143.364 147.702 143.422 147.702 143.509 147.789 143.798 148.049 144.145 148.252 144.579 148.425 144.984 148.599 145.447 148.686 145.909 148.686 146.488 148.686 146.922 148.57 147.182 148.339 147.471 148.107 147.616 147.818 147.616 147.471 147.616 147.153 147.529 146.922 147.326 146.748 147.124 146.575 146.719 146.459 146.112 146.372L145.273 146.285C144.492 146.199 143.914 145.967 143.538 145.591 143.133 145.215 142.959 144.724 142.959 144.087 142.959 143.335 143.22 142.757 143.711 142.323 144.203 141.918 144.926 141.687 145.851 141.687 146.43 141.687 146.95 141.774 147.413 141.918 147.876 142.092 148.281 142.294 148.599 142.525 148.686 142.583 148.686 142.67 148.628 142.757L148.078 143.451C148.021 143.538 147.934 143.538 147.847 143.48 147.587 143.306 147.298 143.162 146.922 143.046 146.546 142.901 146.17 142.844 145.765 142.844 145.273 142.844 144.897 142.93 144.666 143.133 144.405 143.335 144.29 143.596 144.29 143.914 144.29 144.232 144.405 144.463 144.608 144.637 144.839 144.81 145.215 144.926 145.823 144.984L146.632 145.071C147.413 145.157 148.021 145.389 148.397 145.765 148.773 146.141 148.975 146.661 148.975 147.269 148.975 148.049 148.715 148.657 148.165 149.12 147.645 149.698 146.864 149.929 145.851 149.929Z" fill="#01003F" transform="matrix(1 0 0 1.00565 383 167)"/><path d="M58.7108 107.501C58.7108 107.27 58.8265 107.154 59.0578 107.154L61.3716 107.154C61.6029 107.154 61.7186 107.27 61.7186 107.501L61.7186 129.713C61.7186 129.945 61.6029 130.06 61.3716 130.06L59.0578 130.06C58.8265 130.06 58.7108 129.945 58.7108 129.713L58.7108 107.501Z" fill="#01003F" transform="matrix(1 0 0 1.00565 383 167)"/><path d="M87.0539 130.06C86.8226 130.06 86.7069 129.945 86.7069 129.713L86.7069 120.285C86.7069 118.983 86.4176 117.971 85.8103 117.248 85.2029 116.525 84.3064 116.178 83.0917 116.178 82.0216 116.178 81.125 116.525 80.4309 117.248 79.7368 117.942 79.3897 118.925 79.3897 120.111L79.3897 129.713C79.3897 129.945 79.274 130.06 79.0426 130.06L76.9025 130.06C76.6711 130.06 76.5554 129.945 76.5554 129.713L76.5554 120.285C76.5554 118.983 76.2662 117.971 75.6588 117.248 75.0515 116.525 74.1549 116.178 72.9402 116.178 71.8412 116.178 70.9446 116.525 70.2794 117.248 69.5853 117.942 69.2672 118.925 69.2672 120.111L69.2672 129.713C69.2672 129.945 69.1515 130.06 68.9201 130.06L66.7799 130.06C66.5485 130.06 66.4328 129.945 66.4328 129.713L66.4328 114.269C66.4328 114.038 66.5485 113.922 66.7799 113.922L68.9201 113.922C69.1515 113.922 69.2672 114.038 69.2672 114.269L69.2672 115.744 69.2961 115.744C69.6721 115.108 70.2505 114.587 71.0024 114.182 71.7544 113.777 72.7088 113.546 73.8078 113.546 74.9069 113.546 75.8613 113.777 76.6422 114.211 77.452 114.645 78.0593 115.281 78.5221 116.091L78.551 116.091C79.1005 115.31 79.8235 114.703 80.6623 114.24 81.501 113.777 82.5422 113.575 83.7858 113.575 85.6657 113.575 87.1118 114.125 88.0662 115.224 89.0495 116.323 89.5412 117.798 89.5412 119.62L89.5412 129.713C89.5412 129.945 89.4255 130.06 89.1941 130.06L87.0539 130.06Z" fill="#01003F" transform="matrix(1 0 0 1.00565 383 167)"/><path d="M94.3711 136.105C94.1397 136.105 94.024 135.989 94.024 135.758L94.024 114.269C94.024 114.038 94.1397 113.922 94.3711 113.922L96.5113 113.922C96.7426 113.922 96.8583 114.038 96.8583 114.269L96.8583 115.773 96.8873 115.773C97.2632 115.137 97.8127 114.587 98.5647 114.182 99.2877 113.777 100.271 113.546 101.486 113.546 102.903 113.546 104.089 113.864 105.014 114.529 105.969 115.195 106.634 116.149 107.039 117.422 107.27 118.087 107.415 118.752 107.501 119.417 107.588 120.111 107.617 120.95 107.617 121.962 107.617 122.975 107.588 123.813 107.501 124.507 107.415 125.201 107.27 125.867 107.039 126.532 106.634 127.804 105.969 128.788 105.014 129.424 104.06 130.06 102.903 130.407 101.486 130.407 100.271 130.407 99.3167 130.205 98.5647 129.771 97.8417 129.337 97.2922 128.817 96.8873 128.151L96.8583 128.151 96.8583 135.758C96.8583 135.989 96.7426 136.105 96.5113 136.105L94.3711 136.105ZM100.792 127.804C102.585 127.804 103.771 126.995 104.32 125.346 104.465 124.912 104.551 124.45 104.609 123.9 104.667 123.35 104.696 122.714 104.696 121.991 104.696 121.268 104.667 120.632 104.609 120.111 104.551 119.562 104.465 119.07 104.32 118.636 103.771 117.017 102.585 116.207 100.792 116.207 98.9407 116.207 97.7549 117.017 97.2343 118.636 97.0897 119.041 97.0029 119.504 96.9451 120.025 96.8873 120.545 96.8583 121.21 96.8583 122.02 96.8583 122.83 96.8873 123.495 96.9451 124.016 97.0029 124.536 97.0897 124.999 97.2343 125.375 97.7838 126.966 98.9696 127.804 100.792 127.804Z" fill="#01003F" transform="matrix(1 0 0 1.00565 383 167)"/><path d="M121.066 130.06C120.834 130.06 120.719 129.945 120.719 129.713L120.719 128.296 120.69 128.296C120.314 128.903 119.735 129.395 118.954 129.8 118.174 130.205 117.161 130.407 115.918 130.407 115.166 130.407 114.443 130.321 113.777 130.118 113.112 129.916 112.534 129.626 112.071 129.222 111.579 128.817 111.203 128.325 110.914 127.718 110.625 127.11 110.48 126.416 110.48 125.606 110.48 123.9 111.03 122.656 112.158 121.847 113.257 121.037 114.819 120.632 116.785 120.632L120.458 120.632C120.603 120.632 120.661 120.574 120.661 120.429L120.661 119.244C120.661 118.116 120.4 117.306 119.851 116.814 119.301 116.323 118.289 116.062 116.785 116.062 115.86 116.062 115.108 116.178 114.5 116.38 113.893 116.583 113.344 116.872 112.881 117.219 112.678 117.364 112.534 117.364 112.418 117.19L111.522 115.628C111.435 115.455 111.464 115.281 111.579 115.166 112.187 114.703 112.939 114.327 113.864 114.009 114.79 113.72 115.86 113.575 117.075 113.575 119.359 113.575 120.979 114.009 121.962 114.848 122.917 115.686 123.408 117.103 123.408 119.07L123.408 129.742C123.408 129.974 123.293 130.089 123.061 130.089L121.066 130.089ZM116.583 128.007C117.855 128.007 118.868 127.747 119.591 127.197 120.314 126.648 120.661 125.867 120.661 124.854L120.661 123.061C120.661 122.917 120.603 122.859 120.458 122.859L117.219 122.859C115.802 122.859 114.79 123.061 114.153 123.495 113.517 123.9 113.199 124.565 113.199 125.491 113.199 126.329 113.488 126.937 114.067 127.371 114.674 127.775 115.513 128.007 116.583 128.007Z" fill="#01003F" transform="matrix(1 0 0 1.00565 383 167)"/><path d="M126.937 121.962C126.937 121.066 126.995 120.285 127.081 119.62 127.168 118.954 127.284 118.376 127.457 117.884 127.92 116.467 128.701 115.397 129.8 114.645 130.928 113.893 132.258 113.546 133.791 113.546 135.035 113.546 136.105 113.777 137.03 114.269 137.956 114.761 138.708 115.426 139.315 116.265 139.431 116.438 139.402 116.612 139.228 116.727L137.753 117.942C137.58 118.087 137.406 118.058 137.291 117.913 136.828 117.335 136.336 116.901 135.816 116.612 135.295 116.323 134.63 116.178 133.82 116.178 132.952 116.178 132.2 116.38 131.564 116.814 130.928 117.219 130.494 117.855 130.205 118.723 130.06 119.157 129.974 119.62 129.916 120.14 129.858 120.661 129.829 121.268 129.829 121.991 129.829 122.714 129.858 123.322 129.916 123.871 129.974 124.392 130.06 124.883 130.205 125.288 130.465 126.127 130.928 126.763 131.564 127.197 132.2 127.602 132.952 127.833 133.82 127.833 134.63 127.833 135.295 127.689 135.816 127.4 136.336 127.11 136.828 126.676 137.291 126.098 137.435 125.953 137.58 125.925 137.753 126.069L139.228 127.284C139.402 127.428 139.431 127.573 139.315 127.747 138.737 128.585 137.985 129.279 137.03 129.742 136.105 130.234 135.006 130.465 133.791 130.465 132.229 130.465 130.899 130.089 129.8 129.366 128.672 128.614 127.891 127.544 127.457 126.127 127.313 125.635 127.168 125.057 127.081 124.392 126.995 123.698 126.937 122.888 126.937 121.962Z" fill="#01003F" transform="matrix(1 0 0 1.00565 383 167)"/><path d="M147.645 130.205C146.083 130.205 144.955 129.829 144.29 129.106 143.625 128.383 143.306 127.226 143.306 125.635L143.306 116.409C143.306 116.265 143.249 116.207 143.104 116.207L141.745 116.207C141.513 116.207 141.398 116.091 141.398 115.86L141.398 114.24C141.398 114.009 141.513 113.893 141.745 113.893L143.104 113.893C143.249 113.893 143.306 113.835 143.306 113.691L143.306 107.444C143.306 107.212 143.422 107.097 143.653 107.097L145.794 107.097C146.025 107.097 146.141 107.212 146.141 107.444L146.141 113.691C146.141 113.835 146.199 113.893 146.343 113.893L148.888 113.893C149.12 113.893 149.235 114.009 149.235 114.24L149.235 115.86C149.235 116.091 149.12 116.207 148.888 116.207L146.343 116.207C146.199 116.207 146.141 116.265 146.141 116.409L146.141 125.52C146.141 126.329 146.314 126.879 146.632 127.139 146.95 127.428 147.471 127.573 148.194 127.573L148.888 127.573C149.12 127.573 149.235 127.689 149.235 127.92L149.235 129.858C149.235 130.089 149.12 130.205 148.888 130.205L147.645 130.205Z" fill="#01003F" transform="matrix(1 0 0 1.00565 383 167)"/></g></svg>